<?xml version="1.0" encoding="iso-8859-1"?>
<!-- Uploaded to: SVG Repo, www.svgrepo.com, Generator: SVG Repo Mixer Tools -->
<svg fill="#f4f4f4" height="800px" width="800px" version="1.1" id="Layer_1" xmlns="http://www.w3.org/2000/svg" xmlns:xlink="http://www.w3.org/1999/xlink" 
	 viewBox="0 0 512 512" xml:space="preserve">
<g>
	<g>
		<g>
			<path d="M321.972,394.18H190.028c-4.962,0-8.983,4.022-8.983,8.983v57.488c0,4.961,4.021,8.983,8.983,8.983h131.944
				c4.962,0,8.983-4.022,8.983-8.983v-57.488C330.955,398.202,326.934,394.18,321.972,394.18z M312.989,451.668H199.011v-39.522
				h113.979V451.668z"/>
			<path d="M503.017,485.19h-92.519V366.348V17.829c0-4.961-4.021-8.983-8.983-8.983h-291.03c-4.962,0-8.983,4.022-8.983,8.983
				v348.518v118.841H8.983c-4.962,0-8.983,4.022-8.983,8.983c0,4.961,4.021,8.983,8.983,8.983h494.034
				c4.962,0,8.983-4.022,8.983-8.983C512,489.21,507.979,485.19,503.017,485.19z M392.532,485.19H119.468V375.331h50.301h172.463
				h50.301V485.19z M256.003,266.591c4.962,0,8.983-4.022,8.983-8.983V144.424h5.386h2.695v123.011l-17.066,25.344l-17.066-25.344
				V144.424h2.694h5.392v113.185C247.02,262.57,251.041,266.591,256.003,266.591z M250.611,126.458V88.732h10.778v37.726H250.611z
				 M178.751,357.365v-39.522h154.497v39.522H178.751z M392.532,357.364h-41.318v-48.505c0-4.961-4.021-8.983-8.983-8.983h-69.353
				l16.621-24.681c0.999-1.483,1.532-3.23,1.532-5.017V144.424h11.677c4.962,0,8.983-4.022,8.983-8.983s-4.021-8.983-8.983-8.983
				h-20.659h-2.695V88.732h7.185c4.962,0,8.983-4.022,8.983-8.983s-4.021-8.983-8.983-8.983h-16.168h-5.386v-1.199
				c0-4.961-4.021-8.983-8.983-8.983s-8.983,4.022-8.983,8.983v1.199h-5.392h-16.168c-4.962,0-8.983,4.022-8.983,8.983
				s4.021,8.983,8.983,8.983h7.185v37.726h-2.694h-20.659c-4.962,0-8.983,4.022-8.983,8.983s4.021,8.983,8.983,8.983h11.677v125.753
				c0,1.788,0.533,3.534,1.532,5.017l16.621,24.681h-69.354c-4.962,0-8.983,4.022-8.983,8.983v48.505h-41.315V26.812h273.065
				V357.364z"/>
		</g>
	</g>
</g>
</svg>